<svg width="52" height="78" viewBox="0 0 52 78" fill="none" xmlns="http://www.w3.org/2000/svg">
<path d="M6.38049 57.6412H45.3122L44.3569 72.2449C44.2677 73.481 43.7137 74.6374 42.8063 75.4815C41.8989 76.3256 40.7055 76.7947 39.4662 76.7943H12.1696C10.9165 76.7992 9.70937 76.3229 8.79723 75.4636C7.88509 74.6044 7.33756 73.4278 7.26763 72.1767L6.38049 57.6412Z" stroke="#53CC60" stroke-width="2" stroke-miterlimit="10"/>
<path d="M47.8259 20.643L46.8933 34.5984H4.99302L4.16275 20.643H47.8259Z" stroke="#53CC60" stroke-width="2" stroke-miterlimit="10"/>
<path d="M50.0892 11.6579H1.91076C1.48362 11.6579 1.13736 12.0042 1.13736 12.4313V19.881C1.13736 20.3081 1.48362 20.6544 1.91076 20.6544H50.0892C50.5164 20.6544 50.8626 20.3081 50.8626 19.881V12.4313C50.8626 12.0042 50.5164 11.6579 50.0892 11.6579Z" stroke="#53CC60" stroke-width="2" stroke-miterlimit="10"/>
<path d="M45.4146 11.6579H6.48283L11.4872 2.55903C11.7149 2.12925 12.0555 1.76972 12.4723 1.5192C12.8892 1.26867 13.3666 1.13664 13.8529 1.13734H38.2834C38.7785 1.13618 39.2644 1.27143 39.6877 1.52824C40.111 1.78504 40.4555 2.15349 40.6832 2.59315L45.4146 11.6579Z" stroke="#53CC60" stroke-width="2" stroke-miterlimit="10"/>
<path d="M3.20739 35.7699L4.7087 56.6291C4.73963 56.9085 4.87298 57.1667 5.08302 57.3536C5.29305 57.5405 5.56489 57.643 5.84606 57.6413H46.0175C46.2987 57.643 46.5705 57.5405 46.7806 57.3536C46.9906 57.1667 47.124 56.9085 47.1549 56.6291L48.7358 35.7699C48.7358 35.4683 48.616 35.179 48.4027 34.9657C48.1894 34.7524 47.9001 34.6326 47.5985 34.6326H4.29926C4.00556 34.6443 3.72783 34.7693 3.52427 34.9814C3.32072 35.1934 3.20716 35.476 3.20739 35.7699ZM25.9545 51.5678C24.8775 51.5656 23.8254 51.2441 22.9309 50.6442C22.0365 50.0442 21.34 49.1925 20.9294 48.1969C20.5188 47.2012 20.4126 46.1061 20.624 45.0501C20.8355 43.994 21.3553 43.0244 22.1177 42.2636C22.88 41.5028 23.8508 40.9851 24.9073 40.7758C25.9637 40.5665 27.0586 40.6751 28.0534 41.0877C29.0482 41.5004 29.8984 42.1987 30.4965 43.0944C31.0946 43.99 31.4139 45.0429 31.4139 46.1199C31.4154 46.8367 31.2751 47.5467 31.0011 48.2091C30.7272 48.8715 30.3249 49.4732 29.8175 49.9795C29.3101 50.4859 28.7076 50.8869 28.0447 51.1595C27.3817 51.432 26.6714 51.5708 25.9545 51.5678V51.5678Z" stroke="#53CC60" stroke-width="2" stroke-miterlimit="10"/>
</svg>
