<svg width="90" height="59" viewBox="0 0 90 59" fill="none" xmlns="http://www.w3.org/2000/svg">
<path d="M45 25.1308C69.1765 25.1308 88.7755 19.7779 88.7755 13.1748C88.7755 6.57163 69.1765 1.21875 45 1.21875C20.8235 1.21875 1.22449 6.57163 1.22449 13.1748C1.22449 19.7779 20.8235 25.1308 45 25.1308Z" stroke="#0091FE" stroke-width="2" stroke-miterlimit="10"/>
<path d="M11.4733 20.8651C19.5059 18.2448 31.5549 16.5873 44.9998 16.5873C58.4447 16.5873 70.4937 18.2814 78.5263 20.8651" stroke="#0091FE" stroke-width="2" stroke-miterlimit="10"/>
<path d="M88.7755 28.5433C88.7755 32.4677 81.8694 35.9534 71.1918 38.135C62.5602 39.7754 53.7874 40.5673 45 40.4993H44.7184C20.6694 40.4628 1.22449 35.1246 1.22449 28.5433" stroke="#0091FE" stroke-width="2" stroke-miterlimit="10"/>
<path d="M88.7755 13.1747V28.5433" stroke="#0091FE" stroke-width="2" stroke-miterlimit="10"/>
<path d="M1.22449 13.1747V28.5433" stroke="#0091FE" stroke-width="2" stroke-miterlimit="10"/>
<path d="M67.5429 23.4244C67.5429 23.4244 77.0327 27.1904 71.2164 38.1226" stroke="#0091FE" stroke-width="2" stroke-miterlimit="10"/>
<path d="M44.7306 57.7813C48.7544 57.7813 52.0163 54.5346 52.0163 50.5297C52.0163 46.5247 48.7544 43.2781 44.7306 43.2781C40.7068 43.2781 37.4449 46.5247 37.4449 50.5297C37.4449 54.5346 40.7068 57.7813 44.7306 57.7813Z" stroke="#0091FE" stroke-width="2" stroke-miterlimit="10"/>
<path d="M44.7304 40.4993V43.2658" stroke="#0091FE" stroke-width="2" stroke-miterlimit="10"/>
<path d="M44.7428 34.2837C46.0615 34.2837 47.1306 33.2196 47.1306 31.9071C47.1306 30.5945 46.0615 29.5305 44.7428 29.5305C43.4241 29.5305 42.3551 30.5945 42.3551 31.9071C42.3551 33.2196 43.4241 34.2837 44.7428 34.2837Z" stroke="#0091FE" stroke-width="2" stroke-miterlimit="10"/>
<path d="M53.7427 34.2837C55.0615 34.2837 56.1305 33.2196 56.1305 31.9071C56.1305 30.5945 55.0615 29.5305 53.7427 29.5305C52.424 29.5305 51.355 30.5945 51.355 31.9071C51.355 33.2196 52.424 34.2837 53.7427 34.2837Z" stroke="#0091FE" stroke-width="2" stroke-miterlimit="10"/>
<path d="M35.6937 34.2837C37.0124 34.2837 38.0814 33.2196 38.0814 31.9071C38.0814 30.5945 37.0124 29.5305 35.6937 29.5305C34.375 29.5305 33.3059 30.5945 33.3059 31.9071C33.3059 33.2196 34.375 34.2837 35.6937 34.2837Z" stroke="#0091FE" stroke-width="2" stroke-miterlimit="10"/>
</svg>
