<svg width="81" height="67" viewBox="0 0 81 67" fill="none" xmlns="http://www.w3.org/2000/svg">
<path d="M76.1755 23.6454V57.1309C76.1755 58.2381 75.9556 59.3345 75.5284 60.3572C75.1011 61.38 74.4749 62.3091 73.6856 63.0913C72.8963 63.8736 71.9594 64.4936 70.9285 64.916C69.8976 65.3384 68.7928 65.5549 67.6776 65.553H13.3083C11.0584 65.553 8.90061 64.6656 7.30967 63.0862C5.71873 61.5068 4.82495 59.3646 4.82495 57.1309V23.6454H35.6828V26.6553C35.6828 27.066 35.8471 27.4598 36.1396 27.7502C36.4321 28.0406 36.8288 28.2037 37.2424 28.2037H43.7289C44.1425 28.2037 44.5392 28.0406 44.8317 27.7502C45.1242 27.4598 45.2885 27.066 45.2885 26.6553V23.6454H76.1755Z" stroke="#FF3A33" stroke-width="2" stroke-miterlimit="10"/>
<path d="M79.5424 13.9644V23.6454H45.3174V20.2592C45.3275 20.0474 45.2936 19.8358 45.2178 19.6376C45.1421 19.4393 45.0262 19.2586 44.8772 19.1067C44.7282 18.9547 44.5494 18.8347 44.3519 18.7542C44.1543 18.6737 43.9422 18.6343 43.7286 18.6385H37.2422C37.0311 18.6383 36.8222 18.6806 36.628 18.7629C36.4339 18.8452 36.2586 18.9657 36.1128 19.1173C35.967 19.2688 35.8536 19.4481 35.7797 19.6444C35.7057 19.8407 35.6727 20.0499 35.6826 20.2592V23.7177H1.45761V13.9644C1.45761 12.9128 1.87839 11.9043 2.62739 11.1607C3.37639 10.4171 4.39225 9.99939 5.45149 9.99939H75.5485C76.6077 9.99939 77.6236 10.4171 78.3726 11.1607C79.1216 11.9043 79.5424 12.9128 79.5424 13.9644Z" stroke="#FF3A33" stroke-width="2" stroke-miterlimit="10"/>
<path d="M31.0178 1.44709H49.9668C51.0993 1.44519 52.2211 1.665 53.268 2.09394C54.3148 2.52288 55.2662 3.15253 56.0677 3.94687C56.8691 4.74122 57.505 5.68465 57.9388 6.72321C58.3727 7.76176 58.596 8.87504 58.596 9.99936V9.99936H22.4032C22.4032 7.73116 23.3108 5.55586 24.9264 3.952C26.5419 2.34813 28.7331 1.44709 31.0178 1.44709V1.44709Z" stroke="#FF3A33" stroke-width="2" stroke-miterlimit="10"/>
<path d="M43.758 18.6384H37.2424C36.3811 18.6384 35.6828 19.3317 35.6828 20.1868V26.6553C35.6828 27.5104 36.3811 28.2037 37.2424 28.2037H43.758C44.6194 28.2037 45.3176 27.5104 45.3176 26.6553V20.1868C45.3176 19.3317 44.6194 18.6384 43.758 18.6384Z" stroke="#FF3A33" stroke-width="2" stroke-miterlimit="10"/>
<path d="M48.8303 42.6745V48.6799H43.233V54.2367H37.1839V48.6799H31.5866V42.6745H37.1839V37.1177H43.233V42.6745H48.8303Z" stroke="#FF3A33" stroke-width="2" stroke-linejoin="round"/>
</svg>
