<svg width="84" height="79" viewBox="0 0 84 79" fill="none" xmlns="http://www.w3.org/2000/svg">
<path d="M79.4817 24.7581C78.1249 24.8355 76.853 25.4518 75.9425 26.473L61.9488 43.1902L46.4365 47.1281C44.8551 45.1846 43.2863 43.241 41.6924 41.3101L54.1801 36.0003C55.1597 35.4513 55.9249 34.5805 56.3494 33.5317C56.7739 32.483 56.8323 31.319 56.5148 30.2322C56.1974 29.1453 55.5231 28.2006 54.6034 27.5541C53.6838 26.9075 52.5737 26.5979 51.4566 26.6763L29.3679 32.3672L27.6108 30.6269C24.5848 27.3665 22.9328 23.0412 23.0053 18.5685C23.0778 14.0957 24.8691 9.82753 27.9991 6.66937C31.1291 3.51121 35.3517 1.71156 39.7709 1.6522C44.1901 1.59285 48.4583 3.27847 51.67 6.35147C54.4286 3.56869 58.0484 1.83029 61.9227 1.42767C65.7971 1.02506 69.6904 1.98269 72.9501 4.14006C76.2098 6.29742 78.6377 9.52338 79.8269 13.2772C81.0161 17.031 80.8942 21.0845 79.4817 24.7581Z" stroke="#F89ABA" stroke-width="2" stroke-miterlimit="10"/>
<path d="M25.9167 71.1876L20.1937 77.1962L1.76965 59.2595L7.5052 53.2256L8.50923 54.2037L24.3981 69.7014L25.9167 71.1876Z" stroke="#F89ABA" stroke-width="2" stroke-miterlimit="10"/>
<path d="M81.7407 31.7575C76.7206 38.8458 72.9554 46.2135 67.5462 52.8445C66.0383 54.6475 63.9317 55.831 61.6224 56.1727L52.0464 57.6208L31.9657 60.6695C31.6135 60.7204 31.2943 60.907 31.0747 61.1904L24.3476 69.7649L8.509 54.2037L24.3853 35.4795C25.6825 33.9572 27.4075 32.8715 29.3302 32.3672V32.3672L51.4566 26.6763C52.5471 26.6423 53.618 26.9761 54.5006 27.6254C55.3832 28.2747 56.0275 29.2026 56.3322 30.263C56.6369 31.3234 56.5846 32.4563 56.1837 33.4834C55.7827 34.5105 55.0558 35.3735 54.1172 35.9368L41.6296 41.2593L46.4364 47.1281L61.9487 43.1902L75.9299 26.473C76.8837 25.406 79.3436 24.4278 80.5359 24.9233C83.046 25.9268 83.3723 29.3566 81.7407 31.7575Z" stroke="#F89ABA" stroke-width="2" stroke-miterlimit="10"/>
</svg>
