<svg width="109" height="15" viewBox="0 0 109 15" fill="none" xmlns="http://www.w3.org/2000/svg">
<g clip-path="url(#clip0)">
<path d="M12.063 0.947516V14.2107H11.0588V2.42541L6.15145 10.5728H5.98092L1.07355 2.42541V14.2107H0.0693359V0.947516H1.31986L6.0567 8.79173L10.7935 0.947516H12.063ZM22.2314 14.4191C18.4041 14.4191 15.3914 11.3686 15.3914 7.57909C15.3914 3.78962 18.4041 0.739095 22.2314 0.739095C26.0588 0.739095 29.0715 3.78962 29.0715 7.57909C29.0715 11.3686 26.0588 14.4191 22.2314 14.4191ZM22.2314 13.4528C25.5093 13.4528 28.0672 10.838 28.0672 7.57909C28.0672 4.32015 25.5093 1.70541 22.2314 1.70541C18.9536 1.70541 16.3957 4.32015 16.3957 7.57909C16.3957 10.838 18.9536 13.4528 22.2314 13.4528ZM33.4041 13.2633H39.6567V14.2107H32.3999V0.947516H33.4041V13.2633ZM51.8336 14.2107L50.5451 10.838H43.8946L42.6062 14.2107H41.5451L46.6988 0.947516H47.7599L52.8946 14.2107H51.8336ZM44.2735 9.89067H50.1851L47.2293 2.17909L44.2735 9.89067ZM68.3683 0.947516V14.2107H65.3367V6.49909L61.9072 12.1265H61.5662L58.1367 6.49909V14.2107H55.1051V0.947516H58.1367L61.7367 6.84015L65.3367 0.947516H68.3683ZM77.7599 14.4759C73.9515 14.4759 70.863 11.4823 70.863 7.57909C70.863 3.67594 73.9515 0.682251 77.7599 0.682251C81.5683 0.682251 84.6567 3.67594 84.6567 7.57909C84.6567 11.4823 81.5683 14.4759 77.7599 14.4759ZM77.7599 11.5201C79.9199 11.5201 81.6251 9.94751 81.6251 7.57909C81.6251 5.21067 79.9199 3.63804 77.7599 3.63804C75.5999 3.63804 73.8946 5.21067 73.8946 7.57909C73.8946 9.94751 75.5999 11.5201 77.7599 11.5201ZM90.183 11.2928H94.9199V14.2107H87.1515V0.947516H90.183V11.2928ZM105.467 14.2107L104.804 12.1265H99.8778L99.2146 14.2107H95.8988L100.408 0.947516H104.274L108.783 14.2107H105.467ZM100.787 9.28436H103.895L102.341 4.41488L100.787 9.28436Z" fill="#0F0F0F"/>
</g>
<defs>
<clipPath id="clip0">
<rect width="108.947" height="15" fill="white"/>
</clipPath>
</defs>
</svg>
