<svg width="131" height="30" viewBox="0 0 131 30" fill="none" xmlns="http://www.w3.org/2000/svg">
<path d="M16.0519 0C16.9169 0.155844 17.7974 0.257143 18.6468 0.467533C24.5065 1.91688 28.9481 6.88831 29.774 12.8883C30.8727 20.8675 25.6831 28.161 17.774 29.7429C17.2052 29.8597 16.6208 29.9221 16.0442 30.0078C13.3948 30.0078 10.7455 30.0078 8.0961 30.0078C8.0961 24.9818 8.0961 19.9558 8.1039 14.9377C8.1039 14.6026 8.13507 14.2597 8.18961 13.9325C8.7039 10.5584 11.7818 8.01039 15.1558 8.14286C18.7169 8.29091 21.5766 11.0416 21.8026 14.5481C22.1377 19.7532 16.839 23.4078 12.0935 21.2416C11.9922 21.1948 11.8909 21.1558 11.7429 21.1013C11.7429 22.6987 11.7351 24.2416 11.7584 25.7844C11.7584 25.8779 11.9377 26.0182 12.0545 26.0494C13.574 26.4857 15.1247 26.5714 16.6831 26.3221C23.2753 25.2623 27.5299 19.0052 26.1039 12.5065C24.787 6.49091 18.7714 2.55584 12.7792 3.77922C7.35584 4.87013 3.56883 9.4987 3.55325 15.0468C3.54545 19.9013 3.55325 24.7558 3.55325 29.6104C3.55325 29.7429 3.56883 29.8675 3.58442 30C2.39221 30 1.19221 30 0 30C0 24.6234 0 19.2468 0 13.8701C0.0467533 13.5662 0.101299 13.2623 0.14026 12.9507C0.966234 6.8961 5.38442 1.94026 11.3143 0.45974C12.1558 0.249351 13.0208 0.148052 13.8701 0C14.5948 0 15.3273 0 16.0519 0Z" fill="#E6461A"/>
<path d="M130.909 21.1951C130.106 21.1951 129.304 21.1951 128.439 21.1951C128.439 20.5951 128.439 20.0029 128.439 19.4107C128.431 17.112 128.439 14.8133 128.415 12.5146C128.392 10.7146 127.036 9.09382 125.275 8.72759C122.859 8.2211 120.405 10.1769 120.397 12.6549C120.389 15.3432 120.405 18.0315 120.413 20.7198C120.413 20.8756 120.413 21.0237 120.413 21.2029C119.595 21.2029 118.823 21.2029 118.013 21.2029C118.013 16.4575 118.013 11.712 118.013 6.92759C118.784 6.92759 119.563 6.92759 120.389 6.92759C120.389 7.16136 120.389 7.40291 120.389 7.7146C121.169 7.0211 121.995 6.59252 122.93 6.35876C126.608 5.43149 130.457 8.13538 130.831 11.9068C130.839 12.0159 130.878 12.1328 130.901 12.2419C130.909 15.2185 130.909 18.2107 130.909 21.1951Z" fill="#222C31"/>
<path d="M37.5428 19.5977C37.5428 21.9666 37.5428 24.3276 37.5428 26.7198C36.7246 26.7198 35.9532 26.7198 35.1583 26.7198C35.1506 26.6185 35.135 26.5172 35.135 26.4159C35.135 22.2705 35.1194 18.1328 35.1428 13.9873C35.1661 10.2393 37.7921 7.07565 41.4544 6.33539C45.857 5.44708 50.1661 8.54058 50.7427 12.9977C51.3116 17.3925 48.2882 21.3354 43.8778 21.8653C41.5635 22.138 39.5687 21.3432 37.8544 19.8003C37.7765 19.7302 37.7376 19.6055 37.6752 19.5042C37.6285 19.5354 37.5895 19.5666 37.5428 19.5977ZM42.9895 19.512C46.0051 19.5042 48.4129 17.0731 48.4129 14.0497C48.4051 11.0341 45.9661 8.59513 42.9661 8.61071C39.9583 8.6263 37.5428 11.0575 37.5506 14.0808C37.5428 17.0886 39.9739 19.5198 42.9895 19.512Z" fill="#222C31"/>
<path d="M87.8724 17.2448C89.0257 19.0059 91.4646 19.8786 93.6231 19.302C94.94 18.9513 95.9919 18.1955 96.7478 17.0656C97.5036 15.9357 97.7841 14.6734 97.6205 13.2942C98.4387 13.2942 99.2257 13.2942 100.005 13.2942C100.433 16.3098 98.6335 20.2448 94.5971 21.5305C90.7789 22.7461 86.6568 20.876 85.0439 17.2059C83.4231 13.5201 84.849 9.19548 88.3633 7.19288C92.0023 5.12016 96.0776 6.476 97.9789 8.74353C94.6127 11.5721 91.2542 14.4007 87.8724 17.2448ZM86.8594 14.9461C89.2828 12.9124 91.6361 10.9331 94.0127 8.93054C92.1971 8.1747 89.8828 8.68119 88.4101 10.1539C87.1166 11.4552 86.6257 13.037 86.8594 14.9461Z" fill="#222C31"/>
<path d="M67.3249 21.2031C66.5067 21.2031 65.7275 21.2031 64.9171 21.2031C64.9171 20.7199 64.9171 20.2602 64.9171 19.7303C64.7924 19.8316 64.7223 19.8862 64.66 19.9407C60.1951 23.8057 53.3145 21.655 51.8652 15.9433C50.5327 10.6758 54.8652 5.66542 60.2652 6.21087C64.2392 6.61607 67.2782 9.92775 67.3171 13.9174C67.3405 16.255 67.3249 18.5927 67.3249 20.9303C67.3249 21.0083 67.3249 21.0862 67.3249 21.2031ZM54.0392 14.0264C54.0314 17.0187 56.4548 19.4732 59.4314 19.4888C62.4392 19.4966 64.9093 17.0888 64.9171 14.1277C64.9249 11.0342 62.5249 8.58749 59.4938 8.58749C56.486 8.57191 54.047 11.0109 54.0392 14.0264Z" fill="#222C31"/>
<path d="M100.933 14.0258C100.94 9.69333 104.463 6.17125 108.779 6.17125C113.112 6.17125 116.65 9.73229 116.626 14.0648C116.603 18.405 113.089 21.9037 108.756 21.8959C104.439 21.8881 100.925 18.3583 100.933 14.0258ZM108.772 19.4803C111.779 19.4803 114.226 17.0492 114.226 14.0414C114.234 11.0414 111.787 8.57904 108.795 8.57125C105.795 8.56346 103.34 11.0102 103.333 14.0102C103.333 17.0258 105.772 19.4803 108.772 19.4803Z" fill="#222C31"/>
<path d="M68.0889 6.88068C68.5642 6.88068 68.985 6.88068 69.4681 6.88068C69.4681 5.03392 69.4681 3.21055 69.4681 1.36379C70.2941 1.36379 71.0655 1.36379 71.8837 1.36379C71.8837 3.19496 71.8837 5.01834 71.8837 6.88068C73.1071 6.88068 74.2837 6.88068 75.4837 6.88068C75.4837 7.69107 75.4837 8.46249 75.4837 9.28847C74.2993 9.28847 73.1149 9.28847 71.8915 9.28847C71.8915 13.2859 71.8915 17.2287 71.8915 21.195C71.0811 21.195 70.3097 21.195 69.4915 21.195C69.4915 21.0235 69.4915 20.8755 69.4915 20.7274C69.4915 17.0651 69.4837 13.4028 69.4993 9.74042C69.4993 9.38977 69.4136 9.24951 69.0473 9.28847C68.7434 9.31964 68.4317 9.29626 68.0967 9.29626C68.0889 8.48587 68.0889 7.71444 68.0889 6.88068Z" fill="#222C31"/>
<path d="M79.1304 8.96829C80.2758 7.93971 81.5849 7.23062 83.0966 6.96569C83.6264 6.87218 84.1719 6.86439 84.7485 6.80984C84.7485 7.60465 84.7485 8.31374 84.7485 9.02283C84.7485 9.29556 84.5459 9.24881 84.3901 9.24881C83.1901 9.26439 82.1148 9.64621 81.1875 10.3865C79.8395 11.454 79.107 12.8566 79.0836 14.5865C79.0602 16.6358 79.0758 18.693 79.0758 20.7423C79.0758 20.8826 79.0758 21.0228 79.0758 21.1943C78.2732 21.1943 77.5018 21.1943 76.6992 21.1943C76.6992 16.4332 76.6992 11.68 76.6992 6.91114C77.4551 6.91114 78.2187 6.91114 79.0291 6.91114C79.0291 7.58127 79.0291 8.2514 79.0291 8.92153C79.068 8.93712 79.0992 8.9527 79.1304 8.96829Z" fill="#222C31"/>
</svg>
