<svg width="20" height="16" viewBox="0 0 20 16" fill="none" xmlns="http://www.w3.org/2000/svg">
<path d="M17.334 8.00032C17.334 6.99199 18.159 6.16699 19.1673 6.16699V2.50033C19.1673 1.49199 18.3423 0.666992 17.334 0.666992H2.66732C1.65898 0.666992 0.843151 1.49199 0.843151 2.50033V6.16699C1.85148 6.16699 2.66732 6.99199 2.66732 8.00032C2.66732 9.00866 1.85148 9.83366 0.833984 9.83366V13.5003C0.833984 14.5087 1.65898 15.3337 2.66732 15.3337H17.334C18.3423 15.3337 19.1673 14.5087 19.1673 13.5003V9.83366C18.159 9.83366 17.334 9.00866 17.334 8.00032ZM13.2823 12.4003L10.0007 10.292L6.71898 12.4003L7.70898 8.62366L4.69315 6.15782L8.57982 5.92866L10.0007 2.31699L11.4123 5.93782L15.299 6.16699L12.2832 8.63282L13.2823 12.4003Z" fill="#282828"/>
</svg>
