<svg width="99" height="40" viewBox="0 0 99 40" fill="none" xmlns="http://www.w3.org/2000/svg">
<g clip-path="url(#clip0)">
<path d="M70.4966 6.73372V21.2661C70.4966 21.4963 70.3245 21.669 70.095 21.669H67.141C66.9115 21.669 66.7394 21.4963 66.7394 21.2661V6.73372C66.7394 6.50351 66.9115 6.33084 67.141 6.33084H70.095C70.3245 6.33084 70.4966 6.53228 70.4966 6.73372ZM93.8711 6.50351C93.9571 6.61861 93.9571 6.73372 93.9285 6.84883L89.0528 21.41C88.9954 21.5826 88.852 21.669 88.6799 21.669H86.0413C85.8693 21.669 85.7259 21.5539 85.6685 21.41L82.8291 12.9208L79.9898 21.41C79.9324 21.5826 79.789 21.669 79.6169 21.669H76.9783C76.8063 21.669 76.6628 21.5539 76.6055 21.41L71.7298 6.84883C71.7011 6.73372 71.7011 6.58984 71.7872 6.50351C71.8732 6.3884 71.9879 6.33084 72.1027 6.33084H75.4296C75.6017 6.33084 75.7451 6.44595 75.8024 6.61861L78.4124 15.2229L81.2804 6.61861C81.3378 6.44595 81.4812 6.35962 81.6532 6.35962H83.9763C84.1484 6.35962 84.2918 6.47473 84.3492 6.61861L87.2172 15.2229L89.8272 6.61861C89.8845 6.44595 90.0279 6.33084 90.2 6.33084H93.4982C93.699 6.33084 93.8137 6.41718 93.8711 6.50351ZM98.9475 6.73372V21.2661C98.9475 21.4963 98.7754 21.669 98.546 21.669H95.5919C95.3625 21.669 95.1904 21.4963 95.1904 21.2661V6.73372C95.1904 6.50351 95.3625 6.33084 95.5919 6.33084H98.546C98.7468 6.33084 98.9475 6.53228 98.9475 6.73372ZM62.5808 18.3596C63.3838 17.0934 63.8427 15.6258 63.8427 14.0143C63.8427 9.58264 60.2577 5.98552 55.8409 5.98552C51.4241 5.98552 47.8391 9.58264 47.8391 14.0143C47.8391 18.446 51.4241 22.0431 55.8409 22.0431C57.447 22.0431 58.9384 21.5539 60.1716 20.7481L60.7739 21.4963C60.86 21.6114 61.0034 21.669 61.1468 21.669H64.8178C65.076 21.669 65.2194 21.3524 65.0473 21.1798L62.5808 18.3596ZM55.8409 18.446C53.403 18.446 51.6249 16.4028 51.6249 14.0143C51.6249 11.6258 53.403 9.55387 55.8409 9.55387C58.2787 9.55387 60.0569 11.6258 60.0569 14.0143C60.0569 14.5323 59.9709 15.0503 59.7988 15.5107H56.5005C56.2424 15.5107 56.099 15.8272 56.2711 16.0287L57.8485 17.9567C57.2462 18.2733 56.5866 18.446 55.8409 18.446ZM43.8238 19.9136C42.5332 19.9424 40.4395 19.9999 39.4644 17.3237C39.1776 15.1654 38.5179 13.0934 37.5715 11.1942C39.2923 10.4172 41.8162 8.51789 41.1852 4.05746C41.1565 3.79847 40.9271 3.59703 40.6403 3.59703C38.2024 3.30926 34.6748 2.84883 32.6098 4.892C29.1968 1.95674 24.7513 0.230125 19.8757 0.230125C9.0058 0.230125 0.143555 9.12221 0.143555 20.0287C0.143555 30.9352 9.0058 39.8272 19.8757 39.8272C25.6978 39.8272 30.9176 37.2949 34.5313 33.2661C34.8182 32.9495 35.0763 32.633 35.3631 32.2877C36.3095 31.2229 38.0304 29.6114 39.8946 29.0359C42.6192 28.2013 44.2253 26.5898 44.2253 24.115V20.4028C44.254 20.0862 44.0532 19.8848 43.8238 19.9136ZM19.6749 2.10063C22.7724 2.10063 25.2963 4.633 25.2963 7.74092C25.2963 9.06466 24.8374 10.2733 24.0917 11.2229C22.8584 10.8201 21.4531 10.5323 19.9043 10.5323C18.2122 10.5323 16.6921 10.8488 15.3728 11.3956C15.3442 11.3668 15.3155 11.3093 15.2868 11.2805C14.5124 10.3021 14.0535 9.09343 14.0535 7.74092C14.0535 4.633 16.5487 2.10063 19.6749 2.10063ZM19.9043 32.9783C12.7916 32.9783 6.96949 27.1366 6.96949 19.9999C6.96949 15.4531 9.32128 11.4531 12.849 9.12221V9.29487C12.849 9.55387 12.935 9.78408 12.9637 10.0719C13.0784 10.6474 13.2792 11.3668 13.7381 12.0862L13.7667 12.115C12.9063 12.6042 12.1606 13.1798 11.6157 13.7265C10.9847 14.3021 11.587 14.8776 12.2754 14.5035C15.1721 13.151 17.4378 12.9783 19.9043 12.9208C22.3709 12.9495 24.6366 13.1222 27.5333 14.5035C28.279 14.8201 28.7379 14.2157 28.1643 13.5826C27.5333 12.9208 26.7303 12.2877 25.6978 11.7985C25.9846 11.2517 26.1854 10.7337 26.3288 10.1582C26.4435 9.69775 26.5008 9.20854 26.5008 8.74811C30.2867 11.0215 32.8392 15.1654 32.8392 19.9136C32.8392 27.1366 27.0458 32.9783 19.9043 32.9783Z" fill="#FF8C00"/>
<path d="M48.9004 26.9352H50.1623V29.8129H51.0801L52.7436 26.9352H54.1202L52.1413 30.3021V30.3309L54.2349 34.0143H52.8009L51.0801 30.9352H50.191V34.0143H48.9291V26.9352H48.9004ZM57.1317 28.8057C58.6804 28.8057 59.9137 29.8992 59.9137 31.4532C59.9137 33.0072 58.6804 34.1007 57.1317 34.1007C55.6116 34.1007 54.3497 33.0072 54.3497 31.4532C54.3783 29.8992 55.6116 28.8057 57.1317 28.8057ZM57.1317 33.0359C57.9634 33.0359 58.623 32.4028 58.623 31.4532C58.623 30.5323 57.9347 29.8705 57.1317 29.8705C56.2999 29.8705 55.6403 30.5036 55.6403 31.4532C55.6403 32.4028 56.3286 33.0359 57.1317 33.0359ZM60.9462 28.9208H65.535V33.9856H64.2731V29.9856H62.1794V33.9856H60.9175L60.9462 28.9208ZM66.883 28.9208H68.0876V31.6259C68.0876 31.8561 68.0589 32.1438 68.0589 32.2302H68.0876C68.1449 32.1151 68.3457 31.8273 68.4604 31.6259L70.3246 28.9208H71.5292V33.9856H70.3246V31.2805C70.3246 31.0791 70.3533 30.7913 70.3533 30.6762H70.3246C70.2673 30.8201 70.0665 31.0791 69.9518 31.2805L68.0876 33.9856H66.883V28.9208ZM72.3896 32.9208C73.0206 32.8345 73.4508 32.3165 73.4508 30.5036V28.9208H77.1219V33.9856H75.86V29.9568H74.6267V30.5323C74.6267 32.7482 74.0531 34.0143 72.361 34.0431L72.3896 32.9208ZM78.4699 28.9208H79.7318V30.8489H80.3341L81.5674 28.9208H82.9727L81.3666 31.3381V31.3669L83.1735 33.9856H81.7108L80.3915 31.9424H79.7318V33.9856H78.4699V28.9208ZM86.3857 30.8201H86.6151V30.7625C86.6151 30.1007 86.1849 29.8705 85.6687 29.8705C85.1811 29.8705 84.6648 30.0719 84.2633 30.3597L83.8044 29.4676C84.206 29.1223 85.0377 28.8345 85.7834 28.8345C87.1027 28.8345 87.877 29.5827 87.877 30.8489V34.0143H86.7011V33.5827C86.7011 33.3812 86.7298 33.2086 86.7298 33.2086H86.7011C86.3857 33.7554 85.7834 34.1295 85.0951 34.1295C84.1773 34.1295 83.4316 33.5251 83.4316 32.6043C83.4316 31.0791 85.2671 30.8201 86.3857 30.8201ZM85.4392 33.151C86.1275 33.151 86.5864 32.4316 86.5864 31.8273V31.6834H86.357C85.726 31.6834 84.6648 31.7697 84.6648 32.4892C84.6935 32.8057 84.9516 33.151 85.4392 33.151Z" fill="#2D3540"/>
</g>
<defs>
<clipPath id="clip0">
<rect width="98.9474" height="40" fill="white"/>
</clipPath>
</defs>
</svg>
