<svg width="68" height="38" viewBox="0 0 68 38" fill="none" xmlns="http://www.w3.org/2000/svg">
<path d="M50.45 14.7733L34.28 1.11328L18.51 14.7733V36.3333H50.45V14.7733Z" stroke="white" stroke-width="1.5" stroke-linecap="round" stroke-linejoin="round"/>
<path d="M46.6799 23.5234H37.1499V36.3334H46.6799V23.5234Z" stroke="white" stroke-width="1.5" stroke-linejoin="round"/>
<path d="M31.4 23.5234H24.47V30.4534H31.4V23.5234Z" stroke="white" stroke-width="1.5" stroke-linejoin="round"/>
<path d="M34.2699 14.7732C35.855 14.7732 37.1399 13.4883 37.1399 11.9032C37.1399 10.3181 35.855 9.0332 34.2699 9.0332C32.6848 9.0332 31.3999 10.3181 31.3999 11.9032C31.3999 13.4883 32.6848 14.7732 34.2699 14.7732Z" stroke="white" stroke-width="1.5" stroke-linejoin="round"/>
<path d="M52.82 16.8133L34.28 1.11328L15.74 16.8133" stroke="white" stroke-width="1.5" stroke-linecap="round" stroke-linejoin="round"/>
<path d="M1.5 36.3335H67.06" stroke="white" stroke-width="1.5" stroke-linecap="round" stroke-linejoin="round"/>
<path d="M18.5099 25.9531H2.90991V36.1431" stroke="white" stroke-width="1.5" stroke-linejoin="round"/>
<path d="M7.76001 21.7134V36.3334" stroke="white" stroke-width="1.5" stroke-linecap="round" stroke-linejoin="round"/>
<path d="M7.76004 24.063C10.5049 24.063 12.73 21.8379 12.73 19.093C12.73 16.3482 10.5049 14.123 7.76004 14.123C5.01518 14.123 2.79004 16.3482 2.79004 19.093C2.79004 21.8379 5.01518 24.063 7.76004 24.063Z" stroke="white" stroke-width="1.5" stroke-linecap="round" stroke-linejoin="round"/>
<path d="M13.3601 25.9531V36.1431" stroke="white" stroke-width="1.5" stroke-linecap="round" stroke-linejoin="round"/>
<path d="M50.45 25.9531H66.05V36.1431" stroke="white" stroke-width="1.5" stroke-linejoin="round"/>
<path d="M61.21 21.7134V36.3334" stroke="white" stroke-width="1.5" stroke-linecap="round" stroke-linejoin="round"/>
<path d="M61.21 24.063C63.9548 24.063 66.18 21.8379 66.18 19.093C66.18 16.3482 63.9548 14.123 61.21 14.123C58.4651 14.123 56.24 16.3482 56.24 19.093C56.24 21.8379 58.4651 24.063 61.21 24.063Z" stroke="white" stroke-width="1.5" stroke-linecap="round" stroke-linejoin="round"/>
<path d="M55.6101 25.9531V36.1431" stroke="white" stroke-width="1.5" stroke-linecap="round" stroke-linejoin="round"/>
</svg>
