<svg width="62" height="69" viewBox="0 0 62 69" fill="none" xmlns="http://www.w3.org/2000/svg">
<path d="M20.4031 9.7192C20.3983 7.99847 20.9015 6.31502 21.8489 4.88195C22.7963 3.44889 24.1453 2.33067 25.7251 1.66885C27.305 1.00703 29.0446 0.831376 30.7238 1.16413C32.4031 1.49688 33.9463 2.32308 35.1582 3.53812C36.3701 4.75316 37.1962 6.3024 37.5318 7.98972C37.8675 9.67703 37.6976 11.4265 37.0438 13.0167C36.3899 14.607 35.2815 15.9664 33.8587 16.9228C32.436 17.8793 30.763 18.3899 29.0515 18.3899" stroke="white" stroke-width="1.5" stroke-linecap="round" stroke-linejoin="round"/>
<path d="M29.0515 60.3375C28.3224 60.5309 27.646 60.887 27.0727 61.3795C26.4993 61.872 26.0439 62.4881 25.7401 63.182C25.1693 62.9456 24.557 62.8274 23.9397 62.8345C23.3204 62.8319 22.7074 62.9585 22.1393 63.2062C21.9759 63.2729 21.8174 63.3512 21.6651 63.4406C21.4075 62.2541 20.7213 61.206 19.7393 60.4989C18.7573 59.7918 17.5493 59.4761 16.3491 59.6128C15.149 59.7496 14.0419 60.3291 13.2422 61.2392C12.4425 62.1493 12.007 63.3253 12.0201 64.5396C11.4847 64.5402 10.9548 64.6473 10.4608 64.8547C10.3485 64.5159 10.1888 64.1948 9.98657 63.9012V9.75977H29.0515V38.9396" stroke="white" stroke-width="1.5" stroke-miterlimit="10"/>
<path d="M15.291 14.2769V18.1637" stroke="white" stroke-width="1.5" stroke-linecap="round" stroke-linejoin="round"/>
<path d="M19.4385 14.2769V18.1637" stroke="white" stroke-width="1.5" stroke-linecap="round" stroke-linejoin="round"/>
<path d="M23.5938 14.2769V18.1637" stroke="white" stroke-width="1.5" stroke-linecap="round" stroke-linejoin="round"/>
<path d="M23.5938 22.4707V26.3576" stroke="white" stroke-width="1.5" stroke-linecap="round" stroke-linejoin="round"/>
<path d="M23.5938 30.5596V34.4545" stroke="white" stroke-width="1.5" stroke-linecap="round" stroke-linejoin="round"/>
<path d="M19.5188 22.4707V26.3576" stroke="white" stroke-width="1.5" stroke-linecap="round" stroke-linejoin="round"/>
<path d="M19.5188 30.5596V34.4545" stroke="white" stroke-width="1.5" stroke-linecap="round" stroke-linejoin="round"/>
<path d="M15.291 22.4707V26.3576" stroke="white" stroke-width="1.5" stroke-linecap="round" stroke-linejoin="round"/>
<path d="M15.291 30.5596V34.4545" stroke="white" stroke-width="1.5" stroke-linecap="round" stroke-linejoin="round"/>
<path d="M19.5188 38.6565V42.5434" stroke="white" stroke-width="1.5" stroke-linecap="round" stroke-linejoin="round"/>
<path d="M15.291 38.6565V42.5434" stroke="white" stroke-width="1.5" stroke-linecap="round" stroke-linejoin="round"/>
<path d="M32.9014 60.8625C33.6621 61.3116 34.2915 61.9545 34.7262 62.7263C35.1608 63.4981 35.3853 64.3715 35.3769 65.2584C35.3769 65.3635 35.3769 65.4605 35.3769 65.5574C36.0648 65.7235 36.7023 66.0552 37.2343 66.524C37.7664 66.9927 38.1771 67.5845 38.4312 68.2483H52.0146V61.8564C51.5403 61.211 51.2865 60.4286 51.2912 59.6261C51.283 58.8231 51.5372 58.0396 52.0146 57.3958V33.6786L32.9014 31.2544V38.3413" stroke="white" stroke-width="1.5" stroke-miterlimit="10" stroke-linecap="round"/>
<path d="M46.3882 38.592V42.8021" stroke="white" stroke-width="1.5" stroke-miterlimit="10" stroke-linecap="round"/>
<path d="M42.2329 38.592V42.8021" stroke="white" stroke-width="1.5" stroke-miterlimit="10" stroke-linecap="round"/>
<path d="M46.3882 46.7617V50.9637" stroke="white" stroke-width="1.5" stroke-miterlimit="10" stroke-linecap="round"/>
<path d="M42.2329 46.7617V50.9637" stroke="white" stroke-width="1.5" stroke-miterlimit="10" stroke-linecap="round"/>
<path d="M42.2329 54.5029V58.705" stroke="white" stroke-width="1.5" stroke-miterlimit="10" stroke-linecap="round"/>
<path d="M38.7768 37.3879V68.2081H38.399C38.145 67.5443 37.7342 66.9525 37.2022 66.4838C36.6701 66.015 36.0327 65.6833 35.3448 65.5172C35.3448 65.4203 35.3448 65.3233 35.3448 65.2182C35.3427 63.8773 34.8119 62.5918 33.8688 61.6436C32.9256 60.6954 31.6471 60.1618 30.3133 60.1597C29.8757 60.1564 29.4399 60.2162 29.0193 60.3374C28.2901 60.5308 27.6137 60.8869 27.0404 61.3794C26.4671 61.8719 26.0116 62.488 25.7078 63.1819C25.147 62.9497 24.546 62.8316 23.9396 62.8344C23.3203 62.8318 22.7073 62.9584 22.1392 63.2061L22.2356 40.0465L29.0514 38.9556L32.9014 38.3415L38.7768 37.3879Z" stroke="white" stroke-width="1.5" stroke-miterlimit="10" stroke-linecap="round"/>
<path d="M27.1785 45.0242H34.3158" stroke="white" stroke-width="1.5" stroke-miterlimit="10" stroke-linecap="round"/>
<path d="M27.1785 49.4363H34.3158" stroke="white" stroke-width="1.5" stroke-miterlimit="10" stroke-linecap="round"/>
<path d="M27.1785 53.8564H34.3158" stroke="white" stroke-width="1.5" stroke-miterlimit="10" stroke-linecap="round"/>
<path d="M3.85378 68.208H1.40234" stroke="white" stroke-width="1.5" stroke-linecap="round" stroke-linejoin="round"/>
<path d="M60.5986 68.208H50.0374" stroke="white" stroke-width="1.5" stroke-linecap="round" stroke-linejoin="round"/>
<path d="M38.4229 68.208H3.86162C3.40679 67.5633 3.16245 66.7924 3.16235 66.0019C3.16947 65.1085 3.49163 64.2466 4.0715 63.5696C4.65138 62.8926 5.45136 62.4444 6.32909 62.3048C7.20681 62.1652 8.10535 62.3431 8.8648 62.8071C9.62425 63.271 10.1954 63.9908 10.4765 64.8383C10.9705 64.6309 11.5004 64.5238 12.0358 64.5232C12.0227 63.3088 12.4582 62.1329 13.2579 61.2228C14.0576 60.3127 15.1647 59.7332 16.3648 59.5964C17.565 59.4596 18.773 59.7754 19.755 60.4825C20.737 61.1895 21.4232 62.2377 21.6808 63.4242C21.8331 63.3348 21.9916 63.2565 22.155 63.1898C22.7193 62.9498 23.3266 62.8288 23.9393 62.8343C24.5577 62.8323 25.1701 62.956 25.7397 63.1979C26.0435 62.504 26.499 61.8879 27.0723 61.3954C27.6456 60.903 28.322 60.5468 29.0512 60.3535C29.4718 60.2323 29.9076 60.1724 30.3452 60.1757C31.0077 60.1767 31.6635 60.3091 32.275 60.5652C32.8865 60.8213 33.4419 61.1962 33.9092 61.6682C34.3765 62.1403 34.7467 62.7004 34.9985 63.3165C35.2503 63.9325 35.3788 64.5925 35.3767 65.2585C35.3767 65.3636 35.3767 65.4605 35.3767 65.5575C36.0589 65.7207 36.6919 66.0469 37.2222 66.5082C37.7524 66.9696 38.1643 67.5527 38.4229 68.208Z" stroke="white" stroke-width="1.5" stroke-miterlimit="10"/>
<path d="M46.9268 62.9636C48.4938 62.9636 49.7641 61.4694 49.7641 59.6262C49.7641 57.783 48.4938 56.2888 46.9268 56.2888C45.3599 56.2888 44.0896 57.783 44.0896 59.6262C44.0896 61.4694 45.3599 62.9636 46.9268 62.9636Z" stroke="white" stroke-width="1.5" stroke-linecap="round" stroke-linejoin="round"/>
<path d="M46.9268 68.2081V60.5879" stroke="white" stroke-width="1.5" stroke-linecap="round" stroke-linejoin="round"/>
<path d="M56.9657 59.6019C56.9657 61.4444 55.6958 62.9393 54.1284 62.9393C53.7151 62.9309 53.3093 62.8266 52.9426 62.6346C52.5759 62.4426 52.2583 62.168 52.0146 61.8323C51.5403 61.1868 51.2866 60.4044 51.2912 59.6019C51.283 58.799 51.5372 58.0154 52.0146 57.3716C52.2609 57.0404 52.5796 56.7705 52.9461 56.5827C53.3126 56.395 53.7171 56.2944 54.1284 56.2888C55.6958 56.2888 56.9657 57.7838 56.9657 59.6019Z" stroke="white" stroke-width="1.5" stroke-linecap="round" stroke-linejoin="round"/>
<path d="M54.1284 68.2081V60.5879" stroke="white" stroke-width="1.5" stroke-linecap="round" stroke-linejoin="round"/>
</svg>
