<svg width="100" height="56" viewBox="0 0 100 56" fill="none" xmlns="http://www.w3.org/2000/svg">
<g clip-path="url(#clip0)">
<path d="M8.4 18.4H7.1C5.2 18.4 3.5 19.6 3.5 23.3C3.5 26.7 5.1 27.9 7.1 27.9H8.3L8.4 18.4ZM6.4 29.7L2.8 38H0L4 29.1C2.1 28.1 0.9 26.4 0.9 23.1C0.9 18.5 3.7 16.3 7.2 16.3H10.6V37.9H8.4V29.6L6.4 29.7Z" fill="#ED2024"/>
<path d="M55.9002 30.4C55.9002 25.6 57.7002 22.6 61.3002 22.6C62.6002 22.6 63.4002 23 64.1002 23.4L63.8002 25.6C63.2002 25.1 62.3002 24.6 61.3002 24.6C59.6002 24.6 58.4002 26.5 58.4002 30.4C58.4002 34.3 59.3002 36.4 61.2002 36.4C62.3002 36.4 63.2002 36 63.7002 35.5L64.2002 37.2C63.4002 37.9 62.4002 38.3 61.1002 38.3C57.8002 38.2 55.9002 35.6 55.9002 30.4ZM49.0002 30.4V38H46.7002V22.8H49.0002V29.9L52.6002 22.8H55.0002L51.3002 30L55.6002 38.1H53.1002L49.0002 30.4ZM37.9002 29H41.8002C41.8002 26.4 41.4002 24.4 40.0002 24.4C38.5002 24.5 38.0002 26.3 37.9002 29ZM40.5002 38.2C37.4002 38.2 35.4002 35.7 35.4002 31C35.4002 26.1 36.7002 22.5 40.0002 22.5C42.5002 22.5 44.2002 24.4 44.2002 29.6V30.9H37.8002C37.8002 34.3 38.8002 36.2 40.6002 36.2C41.9002 36.2 43.0002 35.6 43.6002 35.2L44.1002 37C43.3002 37.7 42.0002 38.2 40.5002 38.2ZM30.4002 24.7H27.8002V25C27.8002 28.2 27.7002 32.9 26.4002 36.1H30.4002V24.7ZM34.0002 41H31.9002V38H25.3002V41H23.2002V36H24.1002C25.5002 32.8 25.6002 28 25.6002 24V22.7H32.7002V35.9H33.9002V41H34.0002ZM21.8002 22.8V38.1H19.5002V31.2H16.0002V38.1H13.7002V22.8H16.0002V29.3H19.5002V22.8H21.8002Z" fill="black"/>
<path d="M72.4004 20.9C72.4004 18.9 72.6004 17.6 76.8004 14.4C80.2004 11.8 91.5004 2.9 91.5004 2.9V17.9H100.1V39.4H75.0004C73.5004 39.4 72.4004 38.2 72.4004 36.8V20.9Z" fill="#FFCE07"/>
<path d="M91.4998 17.8V26.5L75.7998 37.2L95.6998 30.7V17.8H91.4998Z" fill="#D1AB2B"/>
<path d="M84.3004 17.4C85.2004 16.3 86.5004 15.9 87.3004 16.5C88.0004 17.1 87.9004 18.5 87.0004 19.6C86.1004 20.7 84.8004 21.1 84.0004 20.5C83.3004 19.8 83.4004 18.5 84.3004 17.4Z" fill="#231F20"/>
</g>
<defs>
<clipPath id="clip0">
<rect width="100" height="56" fill="white"/>
</clipPath>
</defs>
</svg>
