<svg width="62" height="69" viewBox="0 0 62 69" fill="none" xmlns="http://www.w3.org/2000/svg">
<path d="M20.4031 9.7192C20.3983 7.99847 20.9015 6.31502 21.8489 4.88195C22.7963 3.44889 24.1453 2.33067 25.7251 1.66885C27.305 1.00703 29.0446 0.831376 30.7238 1.16413C32.4031 1.49688 33.9463 2.32308 35.1582 3.53812C36.3701 4.75316 37.1962 6.3024 37.5318 7.98972C37.8675 9.67703 37.6976 11.4265 37.0438 13.0167C36.3899 14.607 35.2815 15.9664 33.8587 16.9228C32.436 17.8793 30.763 18.3899 29.0515 18.3899" stroke="#FFC72C" stroke-width="1.5" stroke-linecap="round" stroke-linejoin="round"/>
<path d="M29.0515 60.3374C28.3224 60.5308 27.646 60.8869 27.0727 61.3794C26.4993 61.8718 26.0439 62.488 25.7401 63.1819C25.1693 62.9455 24.557 62.8273 23.9397 62.8344C23.3204 62.8318 22.7074 62.9583 22.1393 63.2061C21.9759 63.2728 21.8174 63.3511 21.6651 63.4405C21.4075 62.254 20.7213 61.2058 19.7393 60.4987C18.7573 59.7917 17.5493 59.4759 16.3491 59.6127C15.149 59.7494 14.0419 60.3289 13.2422 61.239C12.4425 62.1491 12.007 63.3251 12.0201 64.5394C11.4847 64.5401 10.9548 64.6472 10.4608 64.8546C10.3485 64.5157 10.1888 64.1947 9.98657 63.9011V9.75964H29.0515V38.9394" stroke="#FFC72C" stroke-width="1.5" stroke-miterlimit="10"/>
<path d="M15.291 14.2768V18.1637" stroke="#FFC72C" stroke-width="1.5" stroke-linecap="round" stroke-linejoin="round"/>
<path d="M19.4385 14.2768V18.1637" stroke="#FFC72C" stroke-width="1.5" stroke-linecap="round" stroke-linejoin="round"/>
<path d="M23.5938 14.2768V18.1637" stroke="#FFC72C" stroke-width="1.5" stroke-linecap="round" stroke-linejoin="round"/>
<path d="M23.5938 22.4707V26.3576" stroke="#FFC72C" stroke-width="1.5" stroke-linecap="round" stroke-linejoin="round"/>
<path d="M23.5938 30.5596V34.4545" stroke="#FFC72C" stroke-width="1.5" stroke-linecap="round" stroke-linejoin="round"/>
<path d="M19.5188 22.4707V26.3576" stroke="#FFC72C" stroke-width="1.5" stroke-linecap="round" stroke-linejoin="round"/>
<path d="M19.5188 30.5596V34.4545" stroke="#FFC72C" stroke-width="1.5" stroke-linecap="round" stroke-linejoin="round"/>
<path d="M15.291 22.4707V26.3576" stroke="#FFC72C" stroke-width="1.5" stroke-linecap="round" stroke-linejoin="round"/>
<path d="M15.291 30.5596V34.4545" stroke="#FFC72C" stroke-width="1.5" stroke-linecap="round" stroke-linejoin="round"/>
<path d="M19.5188 38.6566V42.5435" stroke="#FFC72C" stroke-width="1.5" stroke-linecap="round" stroke-linejoin="round"/>
<path d="M15.291 38.6566V42.5435" stroke="#FFC72C" stroke-width="1.5" stroke-linecap="round" stroke-linejoin="round"/>
<path d="M32.9014 60.8626C33.6621 61.3117 34.2915 61.9546 34.7262 62.7264C35.1608 63.4982 35.3853 64.3717 35.3769 65.2586C35.3769 65.3636 35.3769 65.4606 35.3769 65.5575C36.0648 65.7236 36.7023 66.0553 37.2343 66.5241C37.7664 66.9929 38.1771 67.5846 38.4312 68.2485H52.0146V61.8565C51.5403 61.2111 51.2865 60.4287 51.2912 59.6262C51.283 58.8232 51.5372 58.0397 52.0146 57.3959V33.6788L32.9014 31.2545V38.3414" stroke="#FFC72C" stroke-width="1.5" stroke-miterlimit="10" stroke-linecap="round"/>
<path d="M46.3882 38.592V42.8021" stroke="#FFC72C" stroke-width="1.5" stroke-miterlimit="10" stroke-linecap="round"/>
<path d="M42.2329 38.592V42.8021" stroke="#FFC72C" stroke-width="1.5" stroke-miterlimit="10" stroke-linecap="round"/>
<path d="M46.3882 46.7617V50.9637" stroke="#FFC72C" stroke-width="1.5" stroke-miterlimit="10" stroke-linecap="round"/>
<path d="M42.2329 46.7617V50.9637" stroke="#FFC72C" stroke-width="1.5" stroke-miterlimit="10" stroke-linecap="round"/>
<path d="M42.2329 54.5031V58.7051" stroke="#FFC72C" stroke-width="1.5" stroke-miterlimit="10" stroke-linecap="round"/>
<path d="M38.7768 37.3878V68.208H38.399C38.145 67.5442 37.7342 66.9524 37.2022 66.4836C36.6701 66.0149 36.0327 65.6832 35.3448 65.5171C35.3448 65.4201 35.3448 65.3232 35.3448 65.2181C35.3427 63.8771 34.8119 62.5917 33.8688 61.6435C32.9256 60.6953 31.6471 60.1617 30.3133 60.1595C29.8757 60.1562 29.4399 60.2161 29.0193 60.3373C28.2901 60.5306 27.6137 60.8868 27.0404 61.3793C26.4671 61.8717 26.0116 62.4878 25.7078 63.1818C25.147 62.9496 24.546 62.8315 23.9396 62.8343C23.3203 62.8317 22.7073 62.9582 22.1392 63.206L22.2356 40.0464L29.0514 38.9555L32.9014 38.3414L38.7768 37.3878Z" stroke="#FFC72C" stroke-width="1.5" stroke-miterlimit="10" stroke-linecap="round"/>
<path d="M27.1785 45.0242H34.3158" stroke="#FFC72C" stroke-width="1.5" stroke-miterlimit="10" stroke-linecap="round"/>
<path d="M27.1785 49.4363H34.3158" stroke="#FFC72C" stroke-width="1.5" stroke-miterlimit="10" stroke-linecap="round"/>
<path d="M27.1785 53.8566H34.3158" stroke="#FFC72C" stroke-width="1.5" stroke-miterlimit="10" stroke-linecap="round"/>
<path d="M3.85378 68.2081H1.40234" stroke="#FFC72C" stroke-width="1.5" stroke-linecap="round" stroke-linejoin="round"/>
<path d="M60.5986 68.2081H50.0374" stroke="#FFC72C" stroke-width="1.5" stroke-linecap="round" stroke-linejoin="round"/>
<path d="M38.4229 68.2081H3.86162C3.40679 67.5633 3.16245 66.7924 3.16235 66.002C3.16947 65.1086 3.49163 64.2467 4.0715 63.5697C4.65138 62.8927 5.45136 62.4445 6.32909 62.3049C7.20681 62.1652 8.10535 62.3432 8.8648 62.8071C9.62425 63.271 10.1954 63.9908 10.4765 64.8384C10.9705 64.631 11.5004 64.5239 12.0358 64.5232C12.0227 63.3089 12.4582 62.1329 13.2579 61.2228C14.0576 60.3127 15.1647 59.7332 16.3648 59.5965C17.565 59.4597 18.773 59.7754 19.755 60.4825C20.737 61.1896 21.4232 62.2378 21.6808 63.4242C21.8331 63.3348 21.9916 63.2565 22.155 63.1899C22.7193 62.9499 23.3266 62.8288 23.9393 62.8343C24.5577 62.8324 25.1701 62.956 25.7397 63.198C26.0435 62.5041 26.499 61.888 27.0723 61.3955C27.6456 60.903 28.322 60.5469 29.0512 60.3535C29.4718 60.2323 29.9076 60.1725 30.3452 60.1757C31.0077 60.1768 31.6635 60.3092 32.275 60.5653C32.8865 60.8214 33.4419 61.1962 33.9092 61.6683C34.3765 62.1404 34.7467 62.7005 34.9985 63.3165C35.2503 63.9326 35.3788 64.5925 35.3767 65.2586C35.3767 65.3636 35.3767 65.4606 35.3767 65.5576C36.0589 65.7208 36.6919 66.0469 37.2222 66.5083C37.7524 66.9697 38.1643 67.5527 38.4229 68.2081Z" stroke="#FFC72C" stroke-width="1.5" stroke-miterlimit="10"/>
<path d="M46.9268 62.9637C48.4938 62.9637 49.7641 61.4695 49.7641 59.6263C49.7641 57.7831 48.4938 56.2889 46.9268 56.2889C45.3599 56.2889 44.0896 57.7831 44.0896 59.6263C44.0896 61.4695 45.3599 62.9637 46.9268 62.9637Z" stroke="#FFC72C" stroke-width="1.5" stroke-linecap="round" stroke-linejoin="round"/>
<path d="M46.9268 68.2081V60.5879" stroke="#FFC72C" stroke-width="1.5" stroke-linecap="round" stroke-linejoin="round"/>
<path d="M56.9657 59.6021C56.9657 61.4445 55.6958 62.9394 54.1284 62.9394C53.7151 62.931 53.3093 62.8267 52.9426 62.6347C52.5759 62.4427 52.2583 62.1681 52.0146 61.8324C51.5403 61.1869 51.2866 60.4045 51.2912 59.6021C51.283 58.7991 51.5372 58.0156 52.0146 57.3718C52.2609 57.0405 52.5796 56.7706 52.9461 56.5828C53.3126 56.3951 53.7171 56.2945 54.1284 56.2889C55.6958 56.2889 56.9657 57.7839 56.9657 59.6021Z" stroke="#FFC72C" stroke-width="1.5" stroke-linecap="round" stroke-linejoin="round"/>
<path d="M54.1284 68.2081V60.5879" stroke="#FFC72C" stroke-width="1.5" stroke-linecap="round" stroke-linejoin="round"/>
</svg>
