<svg width="75" height="82" viewBox="0 0 75 82" fill="none" xmlns="http://www.w3.org/2000/svg">
<path d="M73.561 11.5119V57.3868H1.43898V11.5119H29.197V14.0013H45.2417V11.5119H73.561Z" stroke="#FFC72C" stroke-width="2" stroke-linejoin="round"/>
<path d="M45.2413 8.54755H29.1966V14.0013H45.2413V8.54755Z" stroke="#FFC72C" stroke-width="2" stroke-linejoin="round"/>
<path d="M60.3367 57.3867H14.6345V63.229H60.3367V57.3867Z" stroke="#FFC72C" stroke-width="2" stroke-linejoin="round"/>
<path d="M40.7951 63.229H33.8448V80.281H40.7951V63.229Z" stroke="#FFC72C" stroke-width="2" stroke-linejoin="round"/>
<path d="M40.7951 1.43896H33.8448V8.54756H40.7951V1.43896Z" stroke="#FFC72C" stroke-width="2" stroke-linejoin="round"/>
<path d="M19.5414 80.281H12.5911L17.8578 63.229H24.8081L19.5414 80.281Z" stroke="#FFC72C" stroke-width="2" stroke-linejoin="round"/>
<path d="M55.1135 80.281H62.0638L56.7971 63.229H49.8468L55.1135 80.281Z" stroke="#FFC72C" stroke-width="2" stroke-linejoin="round"/>
<path d="M1.43898 45.9612L20.3185 27.9739L39.4858 47.8031L53.0986 37.8885L67.877 57.3868" stroke="#FFC72C" stroke-width="2" stroke-linejoin="round"/>
<path d="M40.4786 32.4779C43.6893 32.4779 46.2921 29.8751 46.2921 26.6644C46.2921 23.4537 43.6893 20.8509 40.4786 20.8509C37.2679 20.8509 34.6651 23.4537 34.6651 26.6644C34.6651 29.8751 37.2679 32.4779 40.4786 32.4779Z" stroke="#FFC72C" stroke-width="2" stroke-linejoin="round"/>
</svg>
