<svg width="24" height="24" viewBox="0 0 24 24" fill="none" xmlns="http://www.w3.org/2000/svg">
<path d="M19 0H5C2.239 0 0 2.239 0 5V19C0 21.761 2.239 24 5 24H19C21.762 24 24 21.761 24 19V5C24 2.239 21.762 0 19 0ZM19.25 16.996H17.116C15.911 16.996 15.707 16.309 14.715 15.317C13.818 14.42 13.32 15.108 13.341 16.385C13.347 16.724 13.18 16.996 12.775 16.996C11.511 16.996 9.695 17.174 7.857 15.19C5.974 13.157 4 9.079 4 8.677C4 8.44 4.196 8.333 4.524 8.333H6.694C7.268 8.333 7.317 8.617 7.477 8.982C8.144 10.503 9.742 13.556 10.167 11.852C10.411 10.874 10.511 8.607 9.464 8.412C8.87 8.302 9.916 7.666 11.432 7.666C11.809 7.666 12.218 7.707 12.637 7.803C13.406 7.982 13.408 8.326 13.398 8.829C13.359 10.732 13.129 12.013 13.631 12.336C14.11 12.646 15.37 10.619 16.034 9.055C16.217 8.622 16.253 8.333 16.768 8.333H19.422C20.812 8.333 19.24 10.33 18.039 11.89C17.071 13.145 17.123 13.17 18.248 14.214C19.051 14.958 19.998 15.974 19.998 16.55C20 16.822 19.788 16.996 19.25 16.996Z" fill="#282828"/>
</svg>
